<svg width="20" height="20" viewBox="0 0 20 20" fill="none" xmlns="http://www.w3.org/2000/svg">
<g clip-path="url(#clip0_401_2)">
<path d="M5.09001 14.781C6.83901 16.149 8.30901 16.587 10 16.587C11.471 16.587 13.391 15.974 15.238 14.668C16.57 13.726 17.671 12.353 18.538 10.538C17.598 8.906 16.51 7.57 15.275 6.525C13.565 5.077 11.693 4.413 9.96301 4.413C8.17301 4.413 6.11301 5.211 4.35501 6.887C3.08901 8.093 2.13001 9.307 1.47501 10.525C2.54001 12.314 3.74601 13.731 5.09001 14.781ZM10 18C8.02601 18 6.26501 17.475 4.25901 15.906C2.68201 14.674 1.29501 13.005 0.0950098 10.906C0.0364088 10.8033 0.00385525 10.6878 0.0001945 10.5696C-0.00346625 10.4514 0.0218772 10.3341 0.0740098 10.228C0.80801 8.735 1.92501 7.278 3.42101 5.851C5.43801 3.928 7.83301 3 9.96301 3C12.006 3 14.186 3.775 16.147 5.434C17.596 6.66 18.85 8.236 19.91 10.156C20.02 10.354 20.03 10.595 19.937 10.801C18.949 13.001 17.642 14.683 16.016 15.833C13.94 17.3 11.749 18 9.99901 18H10ZM10.234 14.4C9.74812 14.4 9.26699 14.3043 8.81808 14.1184C8.36918 13.9324 7.96129 13.6599 7.61771 13.3163C7.27414 12.9727 7.0016 12.5648 6.81566 12.1159C6.62971 11.667 6.53401 11.1859 6.53401 10.7C6.53401 10.2141 6.62971 9.73298 6.81566 9.28407C7.0016 8.83517 7.27414 8.42728 7.61771 8.0837C7.96129 7.74013 8.36918 7.46759 8.81808 7.28165C9.26699 7.0957 9.74812 7 10.234 7C11.2153 7 12.1564 7.38982 12.8503 8.0837C13.5442 8.77759 13.934 9.7187 13.934 10.7C13.934 11.6813 13.5442 12.6224 12.8503 13.3163C12.1564 14.0102 11.2153 14.4 10.234 14.4ZM10.234 13C10.5361 13 10.8351 12.9405 11.1142 12.8249C11.3932 12.7093 11.6468 12.5399 11.8604 12.3263C12.0739 12.1128 12.2433 11.8592 12.3589 11.5802C12.4745 11.3011 12.534 11.002 12.534 10.7C12.534 10.398 12.4745 10.0989 12.3589 9.81983C12.2433 9.54078 12.0739 9.28723 11.8604 9.07365C11.6468 8.86008 11.3932 8.69066 11.1142 8.57508C10.8351 8.45949 10.5361 8.4 10.234 8.4C9.62401 8.4 9.039 8.64232 8.60766 9.07365C8.17633 9.50499 7.93401 10.09 7.93401 10.7C7.93401 11.31 8.17633 11.895 8.60766 12.3263C9.039 12.7577 9.62401 13 10.234 13Z" fill="#545454"/>
</g>
<defs>
<clipPath id="clip0_401_2">
<rect width="20" height="20" fill="white"/>
</clipPath>
</defs>
</svg>
